Coordinates
version=1
nRows=32
nColumns=12
inDegrees=yes

Units are S.I. units (second, meters, Newtons, ...)
Angles are in degrees

endheader
time	SC_y	SC_z	SC_x	AC_y	AC_z	AC_x	GH_y	GH_z	GH_yy	EL_x	PS_y
       0.0              -18.73          7.894          10.09          51.46         -1.225         -2.124          148.8          28.66         -51.86          6.425          140.2
   0.02794              -18.73          7.892          10.09          51.46         -1.227          -2.12          148.8          28.66         -51.85           6.44          140.2
   0.05589              -18.73           7.89          10.09          51.46         -1.228         -2.117          148.8          28.67         -51.84          6.455          140.2
   0.08383              -18.73          7.888           10.1          51.46          -1.23         -2.113          148.8          28.68         -51.82          6.471          140.2
    0.1118              -18.73          7.886           10.1          51.47         -1.231          -2.11          148.8          28.69         -51.81          6.489          140.2
    0.1397              -18.73          7.884          10.11          51.47         -1.233         -2.106          148.7           28.7         -51.79          6.507          140.2
    0.1677              -18.73          7.881          10.11          51.47         -1.235         -2.101          148.7          28.71         -51.77          6.527          140.2
    0.1956              -18.73          7.878          10.11          51.47         -1.237         -2.097          148.7          28.72         -51.75          6.548          140.2
    0.2235              -18.73          7.876          10.12          51.47         -1.239         -2.092          148.7          28.73         -51.73           6.57          140.2
    0.2515              -18.73          7.873          10.12          51.48         -1.242         -2.086          148.6          28.74         -51.71          6.594          140.2
    0.2794              -18.73          7.869          10.13          51.48         -1.244         -2.081          148.6          28.76         -51.69           6.62          140.2
    0.3074              -18.73          7.866          10.13          51.48         -1.247         -2.074          148.6          28.77         -51.66          6.648          140.2
    0.3353              -18.73          7.862          10.14          51.49          -1.25         -2.068          148.6          28.79         -51.64          6.678          140.2
    0.3633              -18.73          7.858          10.15          51.49         -1.253         -2.061          148.5          28.81         -51.61           6.71          140.3
    0.3912              -18.74          7.853          10.15          51.49         -1.257         -2.053          148.5          28.82         -51.58          6.746          140.3
    0.4192              -18.74          7.849          10.16           51.5          -1.26         -2.044          148.4          28.85         -51.54          6.784          140.3
    0.4471              -18.74          7.843          10.17           51.5         -1.265         -2.035          148.4          28.87          -51.5          6.825          140.3
     0.475              -18.74          7.838          10.18          51.51         -1.269         -2.025          148.3          28.89         -51.46           6.87          140.3
     0.503              -18.74          7.832          10.19          51.51         -1.274         -2.014          148.3          28.92         -51.42           6.92          140.3
    0.5309              -18.74          7.825           10.2          51.52         -1.279         -2.002          148.2          28.95         -51.37          6.973          140.3
    0.5589              -18.74          7.817          10.21          51.52         -1.285         -1.989          148.2          28.98         -51.32          7.033          140.3
    0.5868              -18.75          7.809          10.22          51.53         -1.291         -1.975          148.1          29.01         -51.26          7.098          140.3
    0.6148              -18.75            7.8          10.24          51.54         -1.298         -1.959          148.0          29.05          -51.2           7.17          140.3
    0.6427              -18.75           7.79          10.25          51.54         -1.306         -1.941          147.9          29.09         -51.12           7.25          140.3
    0.6706              -18.75          7.779          10.27          51.55         -1.315         -1.922          147.8          29.14         -51.04          7.338          140.3
    0.6986              -18.76          7.766          10.29          51.56         -1.325           -1.9          147.7          29.19         -50.95          7.437          140.4
    0.7265              -18.76          7.752          10.31          51.57         -1.336         -1.875          147.6          29.25         -50.85          7.548          140.4
    0.7545              -18.76          7.736          10.34          51.59         -1.348         -1.848          147.4          29.32         -50.74          7.673          140.4
    0.7824              -18.77          7.719          10.37           51.6         -1.362         -1.817          147.3          29.39         -50.62          7.814          140.4
    0.8104              -18.77          7.699           10.4          51.62         -1.378         -1.781          147.1          29.48         -50.47          7.974          140.4
    0.8383              -18.78          7.675          10.43          51.64         -1.395         -1.741          146.9          29.57         -50.31          8.156          140.5
    0.8663              -18.78          7.649          10.48          51.66         -1.416         -1.694          146.7          29.68         -50.12          8.366          140.5
